<svg width="25.000000" height="24.000000" viewBox="0 0 25 24" fill="none" xmlns="http://www.w3.org/2000/svg" xmlns:xlink="http://www.w3.org/1999/xlink">
	<defs/>
	<path id="github-logo" d="M12.5 0C5.59 0 0 5.5 0 12.3C0 17.74 3.58 22.35 8.54 23.97C9.17 24.09 9.4 23.71 9.4 23.38C9.4 23.09 9.39 22.32 9.38 21.29C5.9 22.03 5.17 19.64 5.17 19.64C4.6 18.22 3.78 17.84 3.78 17.84C2.65 17.08 3.87 17.09 3.87 17.09C5.12 17.18 5.78 18.36 5.78 18.36C6.9 20.24 8.71 19.7 9.42 19.38C9.53 18.59 9.86 18.05 10.21 17.74C7.44 17.43 4.52 16.37 4.52 11.66C4.52 10.31 5 9.22 5.81 8.36C5.67 8.05 5.24 6.79 5.92 5.1C5.92 5.1 6.96 4.77 9.35 6.36C10.35 6.09 11.42 5.95 12.48 5.95C13.54 5.95 14.6 6.09 15.6 6.36C17.98 4.77 19.03 5.1 19.03 5.1C19.7 6.79 19.28 8.05 19.15 8.36C19.95 9.22 20.43 10.31 20.43 11.66C20.43 16.38 17.51 17.43 14.73 17.73C15.17 18.1 15.57 18.85 15.57 20C15.57 21.65 15.56 22.97 15.56 23.37C15.56 23.7 15.78 24.08 16.42 23.96C21.42 22.34 25 17.73 25 12.3C25 5.5 19.4 0 12.5 0L12.5 0Z" fill="#FFFFFF" fill-opacity="1.000000" fill-rule="nonzero"/>
</svg>
