<svg width="24.000000" height="24.000000" viewBox="0 0 24 24" fill="none" xmlns="http://www.w3.org/2000/svg" xmlns:xlink="http://www.w3.org/1999/xlink">
	<defs/>
	<path id="linkedin-logo" d="M2.40002 0L21.6 0C22.92 0 24 1.07999 24 2.39999L24 21.6C24 22.92 22.92 24 21.6 24L2.40002 24C1.07996 24 0 22.92 0 21.6L0 2.39999C0 1.07999 1.07996 0 2.40002 0ZM5.40002 7.56C4.19995 7.56 3.23999 6.60001 3.23999 5.39999C3.23999 4.20001 4.19995 3.23999 5.40002 3.23999C6.59998 3.23999 7.56006 4.20001 7.56006 5.39999C7.56006 6.60001 6.59998 7.56 5.40002 7.56ZM16.8 20.4L20.4 20.4L20.4 13.56C20.4 11.28 18.48 9.35999 16.2 9.35999C15.12 9.35999 13.8 10.08 13.2 11.04L13.2 9.60001L9.59998 9.60001L9.59998 20.4L13.2 20.4L13.2 14.04C13.2 13.08 14.04 12.24 15 12.24C15.96 12.24 16.8 13.08 16.8 14.04L16.8 20.4ZM3.59998 20.4L7.19995 20.4L7.19995 9.60001L3.59998 9.60001L3.59998 20.4Z" clip-rule="evenodd" fill="#FFFFFF" fill-opacity="1.000000" fill-rule="evenodd"/>
</svg>
